<svg width="522" height="157" viewBox="0 0 522 157" fill="none" xmlns="http://www.w3.org/2000/svg">
<path d="M200.542 5.1078C201.624 2.04661 204.519 0 207.766 0H226.609L181.917 126.415H168.49C163.203 126.415 159.505 121.185 161.267 116.2L200.542 5.1078Z" fill="white"/>
<path d="M248.088 43.9877L284.709 0H308.971L258.587 60.5197L271.94 126.416H247.679L237.21 74.7579L220.754 121.307C219.671 124.369 216.777 126.415 213.53 126.415H194.686L239.379 0H252.805C258.093 0 261.791 5.22991 260.029 10.2154L248.088 43.9877Z" fill="white"/>
<path d="M172.15 0C180.965 0 187.129 8.72111 184.187 17.0312L183.887 17.8769L162.8 77.4303C161.762 80.3628 159.515 82.7088 156.63 83.8729L113.558 101.252L104.663 126.415H82.3494C81.023 126.415 80.0981 125.1 80.547 123.852L123.27 5.06848C124.364 2.02763 127.248 0 130.48 0H172.15ZM143.035 17.8769L121.72 78.1672L141.038 70.3722L157.515 23.8379C158.545 20.9294 156.388 17.8769 153.302 17.8769H143.035Z" fill="white"/>
<path d="M373.136 0L365.155 22.3461H337.463L328.66 47.2461H352.067L344.086 67.6768H321.437L308.571 104.069H337.702L329.402 126.415H289.05C282.881 126.415 278.566 120.314 280.623 114.497L297.176 67.6768H289.819C288.135 67.6768 287.271 65.6592 288.433 64.44L304.149 47.95L318.995 5.95906C320.257 2.38768 323.634 0 327.422 0H373.136Z" fill="white"/>
<path d="M428.175 58.4017C427.688 59.8265 426.584 60.9557 425.171 61.4757L410.427 66.9L417.988 77.5738C418.754 78.6544 418.935 80.044 418.472 81.2847L401.625 126.415H382.258C380.958 126.415 380.035 125.147 380.436 123.91L392.82 85.6471C393.214 84.4304 393.002 83.0987 392.25 82.0641L387.39 75.3752L378.169 78.7676L363.13 121.307C362.048 124.369 359.154 126.415 355.907 126.415H337.063L381.755 0H430.291C439.049 0 445.208 8.61598 442.373 16.9026L428.175 58.4017ZM385.357 58.4354L405.338 51.0843L415.777 22.3461H398.117L385.357 58.4354Z" fill="white"/>
<path d="M79.0162 33.6444C78.4443 35.3028 79.6763 37.0307 81.4305 37.0307H99.1069C101.286 37.0307 103.225 35.6482 103.936 33.5881L114.35 3.38637C114.922 1.72797 113.69 0 111.936 0H64.3887C56.3641 0 49.1902 5.0022 46.4159 12.532L35.4986 42.1634C34.0334 46.14 34.6367 50.5846 37.1089 54.0268L59.8301 85.6629L51.5164 108.228L35.6153 113.945L43.4959 90.8476C44.0612 89.1907 42.8296 87.4691 41.0788 87.4691H25.1565C21.9144 87.4691 19.0232 89.5098 17.9374 92.5647L0.230099 142.382C-0.854425 145.425 2.08233 148.362 5.12494 147.277L61.6982 128.803C67.0747 126.886 71.3161 122.671 73.2667 117.307L85.793 82.8583C87.216 78.9449 86.6414 74.5834 84.2535 71.1721L61.6226 38.842L67.7005 22.3461H82.9119L79.0162 33.6444Z" fill="white"/>
<path d="M485.641 33.6444C485.069 35.3028 486.301 37.0307 488.055 37.0307H505.732C507.911 37.0307 509.85 35.6482 510.561 33.5881L520.975 3.38637C521.547 1.72797 520.315 0 518.561 0H471.014C462.989 0 455.815 5.0022 453.041 12.532L442.123 42.1634C440.658 46.14 441.262 50.5846 443.734 54.0268L466.455 85.6629L458.141 108.228L442.24 113.945L450.121 90.8476C450.686 89.1907 449.454 87.4691 447.704 87.4691H431.781C428.539 87.4691 425.648 89.5098 424.562 92.5647L406.855 142.382C405.771 145.425 408.707 148.362 411.75 147.277L468.323 128.803C473.7 126.886 477.941 122.671 479.892 117.307L492.418 82.8583C493.841 78.9449 493.266 74.5834 490.878 71.1721L468.248 38.842L474.325 22.3461H489.537L485.641 33.6444Z" fill="white"/>
<path d="M358.398 150.94V156H354.724V143.46H358.442L361.764 148.52C362.263 149.268 362.644 149.899 362.908 150.412H362.974V148.3V143.46H366.626V156H362.886L359.476 150.72L358.486 149.224H358.42L358.398 150.94Z" fill="white"/>
<path d="M347.356 143.46V150.478C347.356 151.93 347.195 153.067 346.872 153.888C346.564 154.695 345.977 155.289 345.112 155.67C344.247 156.051 342.985 156.242 341.328 156.242C340.111 156.242 339.084 156.117 338.248 155.868C337.412 155.604 336.745 155.113 336.246 154.394C335.762 153.675 335.52 152.663 335.52 151.358V143.46H339.48V150.522C339.48 151.299 339.517 151.893 339.59 152.304C339.678 152.7 339.869 153.008 340.162 153.228C340.455 153.433 340.903 153.536 341.504 153.536C341.871 153.536 342.215 153.499 342.538 153.426C342.861 153.353 343.081 153.243 343.198 153.096C343.33 152.92 343.396 152.282 343.396 151.182V143.46H347.356Z" fill="white"/>
<path d="M320.015 143.46H329.013V146.188H323.975V148.674H328.133V151.072H323.975V156H320.015V143.46Z" fill="white"/>
<path d="M304.32 149.048V155.318C303.338 155.641 302.406 155.875 301.526 156.022C300.646 156.169 299.906 156.242 299.304 156.242C297.31 156.242 295.748 155.721 294.618 154.68C293.489 153.639 292.924 152.04 292.924 149.884C292.924 147.684 293.518 146.041 294.706 144.956C295.894 143.856 297.566 143.306 299.722 143.306C300.852 143.306 302.208 143.475 303.792 143.812C303.792 144.105 303.763 144.545 303.704 145.132C303.646 145.704 303.587 146.107 303.528 146.342L302.736 146.32C301.768 146.291 301.013 146.276 300.47 146.276C298.842 146.276 297.955 146.371 297.808 146.562C297.574 146.841 297.405 147.273 297.302 147.86C297.214 148.447 297.17 149.011 297.17 149.554C297.17 150.537 297.28 151.299 297.5 151.842C297.72 152.385 298.058 152.766 298.512 152.986C298.967 153.206 299.583 153.316 300.36 153.316H300.448V149.048H304.32Z" fill="white"/>
<path d="M277.686 150.94V156H274.012V143.46H277.73L281.052 148.52C281.551 149.268 281.932 149.899 282.196 150.412H282.262V148.3V143.46H285.914V156H282.174L278.764 150.72L277.774 149.224H277.708L277.686 150.94Z" fill="white"/>
<path d="M262.545 143.46H266.505V156H262.545V143.46Z" fill="white"/>
<path d="M246.845 150.94V156H243.171V143.46H246.889L250.211 148.52C250.709 149.268 251.091 149.899 251.355 150.412H251.421V148.3V143.46H255.073V156H251.333L247.923 150.72L246.933 149.224H246.867L246.845 150.94Z" fill="white"/>
<path d="M227.492 150.94V156H223.818V143.46H227.536L230.858 148.52C231.357 149.268 231.738 149.899 232.002 150.412H232.068V148.3V143.46H235.72V156H231.98L228.57 150.72L227.58 149.224H227.514L227.492 150.94Z" fill="white"/>
<path d="M216.45 143.46V150.478C216.45 151.93 216.289 153.067 215.966 153.888C215.658 154.695 215.071 155.289 214.206 155.67C213.341 156.051 212.079 156.242 210.422 156.242C209.205 156.242 208.178 156.117 207.342 155.868C206.506 155.604 205.839 155.113 205.34 154.394C204.856 153.675 204.614 152.663 204.614 151.358V143.46H208.574V150.522C208.574 151.299 208.611 151.893 208.684 152.304C208.772 152.7 208.963 153.008 209.256 153.228C209.549 153.433 209.997 153.536 210.598 153.536C210.965 153.536 211.309 153.499 211.632 153.426C211.955 153.353 212.175 153.243 212.292 153.096C212.424 152.92 212.49 152.282 212.49 151.182V143.46H216.45Z" fill="white"/>
<path d="M198.1 156H193.942L193.194 152.832C193.165 152.715 193.114 152.517 193.04 152.238C192.982 151.945 192.908 151.732 192.82 151.6C192.732 151.453 192.608 151.358 192.446 151.314C192.036 151.329 191.434 151.336 190.642 151.336V156H186.682V143.57C188.457 143.438 190.114 143.372 191.654 143.372C193.048 143.372 194.177 143.489 195.042 143.724C195.908 143.944 196.553 144.333 196.978 144.89C197.418 145.433 197.638 146.181 197.638 147.134C197.638 148.029 197.433 148.733 197.022 149.246C196.612 149.745 195.952 150.045 195.042 150.148V150.28C195.556 150.324 195.981 150.493 196.318 150.786C196.67 151.065 196.905 151.424 197.022 151.864L198.1 156ZM190.642 148.85C190.774 148.865 191.031 148.872 191.412 148.872C192.542 148.872 193.202 148.777 193.392 148.586C193.568 148.41 193.656 147.999 193.656 147.354C193.656 146.753 193.495 146.342 193.172 146.122C192.864 145.902 192.351 145.792 191.632 145.792C191.471 145.792 191.141 145.807 190.642 145.836V148.85Z" fill="white"/>
<path d="M162.004 143.46H171.134V146.1H165.964V148.388H170.32V150.764H165.964V153.316H171.112V156H162.004V143.46Z" fill="white"/>
<path d="M155.863 156H151.529L149.087 151.314C149.043 151.241 148.925 151.035 148.735 150.698C148.559 150.361 148.361 150.038 148.141 149.73V156H144.181V143.46H148.141V149.158C148.39 148.879 148.603 148.579 148.779 148.256C148.969 147.919 149.079 147.721 149.109 147.662L151.463 143.46H155.643L153.135 147.662C153.091 147.721 152.995 147.875 152.849 148.124C152.702 148.373 152.541 148.608 152.365 148.828C152.203 149.033 152.027 149.224 151.837 149.4C152.101 149.649 152.313 149.899 152.475 150.148C152.651 150.383 152.849 150.698 153.069 151.094L155.863 156Z" fill="white"/>
<path d="M133.055 153.25H129.403L128.743 156H124.695L128.743 143.46H133.913L137.785 156H133.715L133.055 153.25ZM131.207 146.166L129.909 150.808H132.527L131.295 146.166H131.207Z" fill="white"/>
<path d="M118.573 156H114.877L114.591 149.092C114.547 147.728 114.496 146.694 114.437 145.99H114.371C114.195 146.547 113.99 147.413 113.755 148.586L113.645 149.136L112.127 156H108.431L107.155 149.818L106.935 148.718C106.627 147.354 106.415 146.445 106.297 145.99H106.231C106.173 146.723 106.121 147.919 106.077 149.576C106.063 149.679 106.055 149.84 106.055 150.06L105.857 156H102.139L102.667 143.46H108.959L110.037 148.872L110.301 150.324C110.419 149.869 110.529 149.363 110.631 148.806L111.643 143.46H118.067L118.573 156Z" fill="white"/>
</svg>
